<mxfile host="app.diagrams.net" agent="Mozilla/5.0 (Windows NT 10.0; Win64; x64) AppleWebKit/537.36 (KHTML, like Gecko) Chrome/133.0.0.0 Safari/537.36" version="26.2.7">
  <diagram name="Page-1" id="TnqijpMx9pY5MQlE8vbq">
    <mxGraphModel dx="3467" dy="1776" grid="1" gridSize="10" guides="1" tooltips="1" connect="1" arrows="1" fold="1" page="1" pageScale="1" pageWidth="850" pageHeight="1100" math="0" shadow="0">
      <root>
        <mxCell id="0" />
        <mxCell id="1" parent="0" />
        <mxCell id="__30T2OvZkhh7V2jQrsh-3" value="" style="edgeStyle=orthogonalEdgeStyle;rounded=0;orthogonalLoop=1;jettySize=auto;html=1;" parent="1" source="__30T2OvZkhh7V2jQrsh-1" target="__30T2OvZkhh7V2jQrsh-2" edge="1">
          <mxGeometry relative="1" as="geometry" />
        </mxCell>
        <mxCell id="__30T2OvZkhh7V2jQrsh-1" value="Bắt đầu" style="rounded=1;whiteSpace=wrap;html=1;fillColor=#F5FF48;" parent="1" vertex="1">
          <mxGeometry x="305" y="240" width="120" height="60" as="geometry" />
        </mxCell>
        <mxCell id="__30T2OvZkhh7V2jQrsh-5" value="" style="edgeStyle=orthogonalEdgeStyle;rounded=0;orthogonalLoop=1;jettySize=auto;html=1;" parent="1" source="__30T2OvZkhh7V2jQrsh-2" target="__30T2OvZkhh7V2jQrsh-4" edge="1">
          <mxGeometry relative="1" as="geometry" />
        </mxCell>
        <mxCell id="__30T2OvZkhh7V2jQrsh-2" value="Nhận thông báo trúng tuyển" style="shape=parallelogram;perimeter=parallelogramPerimeter;whiteSpace=wrap;html=1;fixedSize=1;fillColor=#F5FF48;" parent="1" vertex="1">
          <mxGeometry x="272.5" y="360" width="185" height="60" as="geometry" />
        </mxCell>
        <mxCell id="__30T2OvZkhh7V2jQrsh-7" value="" style="edgeStyle=orthogonalEdgeStyle;rounded=0;orthogonalLoop=1;jettySize=auto;html=1;" parent="1" source="__30T2OvZkhh7V2jQrsh-4" target="__30T2OvZkhh7V2jQrsh-6" edge="1">
          <mxGeometry relative="1" as="geometry" />
        </mxCell>
        <mxCell id="__30T2OvZkhh7V2jQrsh-4" value="Xác nhận học tập trực tuyến" style="rounded=0;whiteSpace=wrap;html=1;fillColor=#F5FF48;" parent="1" vertex="1">
          <mxGeometry x="305" y="470" width="120" height="60" as="geometry" />
        </mxCell>
        <mxCell id="__30T2OvZkhh7V2jQrsh-10" value="" style="edgeStyle=orthogonalEdgeStyle;rounded=0;orthogonalLoop=1;jettySize=auto;html=1;" parent="1" source="__30T2OvZkhh7V2jQrsh-6" target="__30T2OvZkhh7V2jQrsh-8" edge="1">
          <mxGeometry relative="1" as="geometry" />
        </mxCell>
        <mxCell id="__30T2OvZkhh7V2jQrsh-6" value="Chuẩn bị hồ sơ nhập học" style="rounded=0;whiteSpace=wrap;html=1;fillColor=#F5FF48;" parent="1" vertex="1">
          <mxGeometry x="305" y="580" width="120" height="60" as="geometry" />
        </mxCell>
        <mxCell id="__30T2OvZkhh7V2jQrsh-11" value="" style="edgeStyle=orthogonalEdgeStyle;rounded=0;orthogonalLoop=1;jettySize=auto;html=1;" parent="1" source="__30T2OvZkhh7V2jQrsh-8" target="__30T2OvZkhh7V2jQrsh-9" edge="1">
          <mxGeometry relative="1" as="geometry" />
        </mxCell>
        <mxCell id="__30T2OvZkhh7V2jQrsh-8" value="Tìm hiểu và chuẩn bị các khoản phí" style="rounded=0;whiteSpace=wrap;html=1;fillColor=#F5FF48;" parent="1" vertex="1">
          <mxGeometry x="305" y="690" width="120" height="60" as="geometry" />
        </mxCell>
        <mxCell id="__30T2OvZkhh7V2jQrsh-13" value="" style="edgeStyle=orthogonalEdgeStyle;rounded=0;orthogonalLoop=1;jettySize=auto;html=1;" parent="1" source="__30T2OvZkhh7V2jQrsh-9" target="__30T2OvZkhh7V2jQrsh-12" edge="1">
          <mxGeometry relative="1" as="geometry" />
        </mxCell>
        <mxCell id="__30T2OvZkhh7V2jQrsh-9" value="Đến trường theo lịch" style="rounded=0;whiteSpace=wrap;html=1;fillColor=#F5FF48;" parent="1" vertex="1">
          <mxGeometry x="305" y="810" width="120" height="60" as="geometry" />
        </mxCell>
        <mxCell id="__30T2OvZkhh7V2jQrsh-15" value="" style="edgeStyle=orthogonalEdgeStyle;rounded=0;orthogonalLoop=1;jettySize=auto;html=1;" parent="1" source="__30T2OvZkhh7V2jQrsh-12" target="__30T2OvZkhh7V2jQrsh-14" edge="1">
          <mxGeometry relative="1" as="geometry" />
        </mxCell>
        <mxCell id="__30T2OvZkhh7V2jQrsh-12" value="Nộp hồ sơ nhập học" style="shape=parallelogram;perimeter=parallelogramPerimeter;whiteSpace=wrap;html=1;fixedSize=1;fillColor=#F5FF48;" parent="1" vertex="1">
          <mxGeometry x="272.5" y="910" width="185" height="60" as="geometry" />
        </mxCell>
        <mxCell id="__30T2OvZkhh7V2jQrsh-22" value="" style="edgeStyle=orthogonalEdgeStyle;rounded=0;orthogonalLoop=1;jettySize=auto;html=1;entryX=0;entryY=0.5;entryDx=0;entryDy=0;" parent="1" source="__30T2OvZkhh7V2jQrsh-14" target="__30T2OvZkhh7V2jQrsh-17" edge="1">
          <mxGeometry relative="1" as="geometry">
            <mxPoint x="670" y="940" as="targetPoint" />
          </mxGeometry>
        </mxCell>
        <mxCell id="__30T2OvZkhh7V2jQrsh-26" value="" style="edgeStyle=orthogonalEdgeStyle;rounded=0;orthogonalLoop=1;jettySize=auto;html=1;" parent="1" source="__30T2OvZkhh7V2jQrsh-14" target="__30T2OvZkhh7V2jQrsh-24" edge="1">
          <mxGeometry relative="1" as="geometry" />
        </mxCell>
        <mxCell id="__30T2OvZkhh7V2jQrsh-14" value="Hồ sơ hợp lệ" style="rhombus;whiteSpace=wrap;html=1;fillColor=#CCE7FF;" parent="1" vertex="1">
          <mxGeometry x="510" y="900" width="100" height="80" as="geometry" />
        </mxCell>
        <mxCell id="__30T2OvZkhh7V2jQrsh-29" value="" style="edgeStyle=orthogonalEdgeStyle;rounded=0;orthogonalLoop=1;jettySize=auto;html=1;" parent="1" source="__30T2OvZkhh7V2jQrsh-17" target="__30T2OvZkhh7V2jQrsh-28" edge="1">
          <mxGeometry relative="1" as="geometry" />
        </mxCell>
        <mxCell id="__30T2OvZkhh7V2jQrsh-17" value="Nộp các khoản phí" style="rounded=0;whiteSpace=wrap;html=1;fillColor=#F5FF48;" parent="1" vertex="1">
          <mxGeometry x="720" y="910" width="120" height="60" as="geometry" />
        </mxCell>
        <mxCell id="__30T2OvZkhh7V2jQrsh-21" value="Có" style="text;html=1;align=center;verticalAlign=middle;resizable=0;points=[];autosize=1;strokeColor=none;fillColor=none;" parent="1" vertex="1">
          <mxGeometry x="620" y="910" width="40" height="30" as="geometry" />
        </mxCell>
        <mxCell id="__30T2OvZkhh7V2jQrsh-23" value="Không" style="text;html=1;align=center;verticalAlign=middle;resizable=0;points=[];autosize=1;strokeColor=none;fillColor=none;" parent="1" vertex="1">
          <mxGeometry x="570" y="980" width="60" height="30" as="geometry" />
        </mxCell>
        <mxCell id="__30T2OvZkhh7V2jQrsh-27" style="edgeStyle=orthogonalEdgeStyle;rounded=0;orthogonalLoop=1;jettySize=auto;html=1;entryX=0.5;entryY=1;entryDx=0;entryDy=0;" parent="1" source="__30T2OvZkhh7V2jQrsh-24" target="__30T2OvZkhh7V2jQrsh-12" edge="1">
          <mxGeometry relative="1" as="geometry" />
        </mxCell>
        <mxCell id="__30T2OvZkhh7V2jQrsh-24" value="Bổ sung hồ sơ" style="rounded=0;whiteSpace=wrap;html=1;fillColor=#CCE7FF;" parent="1" vertex="1">
          <mxGeometry x="500" y="1010" width="120" height="60" as="geometry" />
        </mxCell>
        <mxCell id="__30T2OvZkhh7V2jQrsh-33" value="" style="edgeStyle=orthogonalEdgeStyle;rounded=0;orthogonalLoop=1;jettySize=auto;html=1;" parent="1" source="__30T2OvZkhh7V2jQrsh-28" target="__30T2OvZkhh7V2jQrsh-30" edge="1">
          <mxGeometry relative="1" as="geometry" />
        </mxCell>
        <mxCell id="__30T2OvZkhh7V2jQrsh-28" value="Kiểm tra sức khoẻ (nếu có)" style="rounded=0;whiteSpace=wrap;html=1;fillColor=#F5FF48;" parent="1" vertex="1">
          <mxGeometry x="720" y="1020" width="120" height="60" as="geometry" />
        </mxCell>
        <mxCell id="__30T2OvZkhh7V2jQrsh-34" value="" style="edgeStyle=orthogonalEdgeStyle;rounded=0;orthogonalLoop=1;jettySize=auto;html=1;" parent="1" source="__30T2OvZkhh7V2jQrsh-30" target="__30T2OvZkhh7V2jQrsh-31" edge="1">
          <mxGeometry relative="1" as="geometry" />
        </mxCell>
        <mxCell id="__30T2OvZkhh7V2jQrsh-30" value="Tham gia buổi hướng dẫn" style="rounded=0;whiteSpace=wrap;html=1;fillColor=#F5FF48;" parent="1" vertex="1">
          <mxGeometry x="720" y="1110" width="120" height="60" as="geometry" />
        </mxCell>
        <mxCell id="J7X4lXe5YuBrX6dxGv2W-6" style="edgeStyle=orthogonalEdgeStyle;rounded=0;orthogonalLoop=1;jettySize=auto;html=1;entryX=0.5;entryY=0;entryDx=0;entryDy=0;" edge="1" parent="1" source="__30T2OvZkhh7V2jQrsh-31" target="__30T2OvZkhh7V2jQrsh-32">
          <mxGeometry relative="1" as="geometry" />
        </mxCell>
        <mxCell id="__30T2OvZkhh7V2jQrsh-31" value="Nhận giấy tờ và thông tin" style="rounded=0;whiteSpace=wrap;html=1;fillColor=#F5FF48;" parent="1" vertex="1">
          <mxGeometry x="320" y="1110" width="120" height="60" as="geometry" />
        </mxCell>
        <mxCell id="__30T2OvZkhh7V2jQrsh-37" style="edgeStyle=orthogonalEdgeStyle;rounded=0;orthogonalLoop=1;jettySize=auto;html=1;entryX=0.5;entryY=0;entryDx=0;entryDy=0;" parent="1" source="__30T2OvZkhh7V2jQrsh-32" target="__30T2OvZkhh7V2jQrsh-36" edge="1">
          <mxGeometry relative="1" as="geometry" />
        </mxCell>
        <mxCell id="__30T2OvZkhh7V2jQrsh-32" value="Hoàn thành các thủ tục khác" style="rounded=0;whiteSpace=wrap;html=1;fillColor=#F5FF48;" parent="1" vertex="1">
          <mxGeometry x="320" y="1230" width="120" height="60" as="geometry" />
        </mxCell>
        <mxCell id="__30T2OvZkhh7V2jQrsh-36" value="Kết thúc" style="rounded=1;whiteSpace=wrap;html=1;fillColor=#F5FF48;" parent="1" vertex="1">
          <mxGeometry x="320" y="1350" width="120" height="60" as="geometry" />
        </mxCell>
        <mxCell id="J7X4lXe5YuBrX6dxGv2W-2" value="Sinh Vien&lt;div&gt;&lt;br&gt;&lt;/div&gt;" style="shape=umlActor;verticalLabelPosition=bottom;verticalAlign=top;html=1;outlineConnect=0;fillColor=#F5FF48;" vertex="1" parent="1">
          <mxGeometry x="350" y="130" width="30" height="60" as="geometry" />
        </mxCell>
        <mxCell id="J7X4lXe5YuBrX6dxGv2W-3" value="Phòng Công tác Sinh viên" style="shape=umlActor;verticalLabelPosition=bottom;verticalAlign=top;html=1;outlineConnect=0;fillColor=#CCE7FF;" vertex="1" parent="1">
          <mxGeometry x="545" y="800" width="30" height="60" as="geometry" />
        </mxCell>
        <mxCell id="J7X4lXe5YuBrX6dxGv2W-7" value="Sinh Vien&lt;div&gt;&lt;br&gt;&lt;/div&gt;" style="shape=umlActor;verticalLabelPosition=bottom;verticalAlign=top;html=1;outlineConnect=0;fillColor=#F5FF48;" vertex="1" parent="1">
          <mxGeometry x="780" y="810" width="30" height="60" as="geometry" />
        </mxCell>
      </root>
    </mxGraphModel>
  </diagram>
</mxfile>
